<svg xmlns="http://www.w3.org/2000/svg" viewBox="0 0 599.48 655.92"><defs><style>.a,.b,.c{fill:#8aa1b1;}.b{font-size:90px;font-family:AvenirNextCondensed-Heavy, Avenir Next Condensed;font-weight:800;}.c{font-size:32px;font-family:AvenirNextCondensed-Medium, Avenir Next Condensed;font-weight:500;}</style></defs><title>lizard</title><path class="a" d="M626.79,592.53c-29.78-11.59-84.87-38.39-122-96-67.7-105-49.37-271.72,61-352,107.47-78.16,238.3-27.91,248-24,143.67,57.91,169.84,214.25,171,222,.23,1.57-25.85-138.21-140-193-61-29.29-156-39.31-231,16-8.13,6-85.29,64.93-85,164,.23,79.44,50.17,160,116,180,23.89,7.27,46.4,5.5,91,2,47.12-3.69,70.67-5.54,86-23,15.71-17.89,10.92-37.35,35-59,2.2-2,9.83-6.68,25-16,23.37-14.35,48.15-29,80-40,14.2-4.91,18.05-5,21-3,13.77,9.53-4.72,57.48-8,66-9.92,25.72-16.36,42.43-33,56-27.58,22.5-50.47,9.7-72,33-13.78,14.92-7.71,23.75-19,42-24.83,40.17-84.06,45.75-108,48C689.62,620.55,647.56,603.1,626.79,592.53Z" transform="translate(-388.53 -67.61)"/><path class="a" d="M872.76,521.81c-5.8,22-5.39,27.82-3.69,28.71,1.11.58,2.28-1.19,5.42-2.83,3.66-1.92,6.85-2,20.2-.93s17.44,1.75,21-1.33a9.81,9.81,0,0,0,3.32-4.95c1.47-5.53-3.36-9.33-1.52-14.2a8.58,8.58,0,0,1,4.54-4.52c.2-.09,3.62-1.64,4.74-.34.75.87,0,2.4-.56,4.58-1.14,4.79-.51,10.66,1,11.28s5.11-3.91,7.08-9.06c3.58-9.38-.64-14.23,3.68-21.21.76-1.25,3.27-5.3,7.62-6.14a32.78,32.78,0,0,1,6,.1c3.35.19,5.38.39,7.18.53,9.44.76,9.82-.11,12.36,1,4.44,2,7.23,6.44,6.72,7.19s-5.15-3.74-11.69-3.52c-1.26,0-5.46.18-8.18,3.2s-1,5.45-3.77,11.62c-1.92,4.32-3.94,5.83-3.22,7,.91,1.52,4.22-.66,9.17.56,3.11.78,5.64,2.94,10.69,7.27,3.87,3.31,6.47,6.1,6.28,6.35-.31.41-6.8-7.5-14.67-7.32a12.11,12.11,0,0,0-7.4,2.8c-3.13,2.72-2.36,5.3-4.65,9.93-4.27,8.61-11.78,9.42-11.18,14.42a37.25,37.25,0,0,0,2.64,5c3.24,5.78,4.74,8.12,4.4,8.42-.66.58-6.86-8.49-10.69-7.27-2.12.68-2.51,4.2-2.88,5.8-3.71,15.95-47.08,17.27-53.9,17.48-20.81.63-29.85-2.91-36.08-6.84-8.17-5.15-10.43-10.27-10.91-11.44-3.37-8.13-.68-17.55.15-20.43.37-1.29.68-2.14,1.19-3.5,2.55-6.85,5.17-10.73,11.1-20.07s5.79-9.34,6.64-9.9C857.52,514.92,867.54,519.13,872.76,521.81Z" transform="translate(-388.53 -67.61)"/><path class="a" d="M657.86,562.45c-3.89,3.79,5.44,14,12.71,19.34,10.66,7.88,28.23,14,28.13,20.59,0,.32-.1.68-4.54,10.61,6.08,12.69,3.59,20.3,0,25-4,5.26-10,7.34-10.89,13.72-.71,5,1.85,11,2.57,12.65a44.52,44.52,0,0,0,2.88,5.45c2.7,4.64,3.87,5.68,8.86,12.7,4.86,6.81,6.14,9.19,8.38,9.14a4.54,4.54,0,0,0,3.63-2.5c1.44-2.94-2.4-5.8-6.35-10-6.08-6.44-10.66-14.14-9.08-15s10.51,5.33,11.8,6.24c15.22,10.72,20.94,19.59,27.23,26.21,18.22,19.19,49.35,28,50.82,26.83.71-.58-4.22-4.65-9.08-7.49a50.23,50.23,0,0,0-6.35-3.12c-9.31-3.87-19.83-11.24-26.32-17.47-1.21-1.16-14.55-14-10-17.47,3-2.26,12.4.1,14.52.62a40.51,40.51,0,0,1,10.89,4.37c5.51,3.26,18,6.14,48.1,5a9.28,9.28,0,0,0-3.63-3.12c-3.69-1.81-8.15-1.38-10.89-1.24-7.25.34-12.91-.92-20-2.5,0,0-12.89-2.88-22.69-9.27l-.05,0c-2.44-1.59-3.66-2.39-3.57-2.56.32-.59,6.84,1.4,15.42,1.25a61.48,61.48,0,0,0,7.26-.62,165.56,165.56,0,0,0,20-3.75,16.67,16.67,0,0,0-1.82-.62,22.34,22.34,0,0,0-10,0c-3.9.7-8,.46-16.33,0-6.82-.38-11.77-.7-16.34-3.12-1.17-.62-5.26-2.78-4.54-4.37,1-2.14,9.42-.59,16.34-4.37a14.87,14.87,0,0,0,4.54-3.74,26.84,26.84,0,0,0-3.63-.62,27.23,27.23,0,0,0-5.45,0c-5,.53-9.31.94-12.71,1.24-3.8.34-5,.42-6.35,0-4.4-1.34-5.19-6.3-5.44-8.11-1.39-9.75,6.65-15.81,13.61-31.2,5.72-12.65,4.43-17.71,1.82-21.21-2.48-3.32-6.13-5.22-8.17-6.24C716.57,575.37,665.3,555.2,657.86,562.45Z" transform="translate(-388.53 -67.61)"/><path class="a" d="M630.24,508.31c-1.22,5.79,13.49,8.62,23.4,8.62,14.51,0,34.22-6,38.19-.21.19.28.33.66,2.36,12.11,13.29,7.11,15.67,15.31,15.25,21.64-.47,7.17-4.59,12.77-1.52,18.89,2.4,4.78,8.39,8.33,10.07,9.32a47.8,47.8,0,0,0,6,2.88c5.3,2.29,7,2.44,15.83,5.32,8.59,2.79,11.21,4,13.22,2.55a5.06,5.06,0,0,0,1.78-4.5c-.49-3.47-5.74-3.49-11.89-4.58-9.47-1.67-18.35-5.41-17.42-7.16S738.29,571.07,740,571c20.4-.48,31,3.55,40.8,5.25,28.32,4.94,62.06-7.38,62.66-9.36.3-1-6.68-1.32-12.83-.66a55.71,55.71,0,0,0-7.69,1.37c-10.84,2.62-24.93,3-34.64,1.74-1.82-.23-21.79-2.77-19.77-8.74,1.31-3.85,11.35-7.87,13.6-8.78a46.46,46.46,0,0,1,12.58-3.2c7-.72,20.13-6.22,46.84-26.54a10,10,0,0,0-5.21-.38c-4.47.8-8.26,4-10.68,5.91-6.38,5-12.32,7.49-19.7,10.65,0,0-13.5,5.78-26.32,6.53h-.07c-3.19.18-4.79.27-4.81.07-.07-.72,7.08-3.18,14.8-8.82a69.85,69.85,0,0,0,6.23-5.2,192.35,192.35,0,0,0,15.89-16.06,15.61,15.61,0,0,0-2,.63,26,26,0,0,0-9.08,6.4c-3.13,3.11-7,5.57-14.87,10.49-6.44,4-11.14,6.94-16.78,7.78-1.44.21-6.48,1-6.8-.88-.43-2.47,8.21-6.56,12.2-14.27a16.38,16.38,0,0,0,1.84-6.16,32.62,32.62,0,0,0-3.69,1.79,31.49,31.49,0,0,0-5,3.5c-4.23,3.68-7.9,6.79-10.81,9.23-3.25,2.74-4.3,3.57-5.78,4.08-4.83,1.65-8.57-2.13-9.91-3.54-7.22-7.56-3.61-18-6.68-35.78-2.53-14.64-6.8-18.2-11.32-19.56-4.28-1.29-8.77-.6-11.25-.17C691.58,481.84,632.58,497.25,630.24,508.31Z" transform="translate(-388.53 -67.61)"/><path class="a" d="M781.79,508.53c6.53,11.67,52.52,5.8,55-7,2.13-11-26.8-32.15-42-24-8,4.31-11.54,16.42-12,18C781.28,500.73,780,505.27,781.79,508.53Z" transform="translate(-388.53 -67.61)"/><text class="b" transform="translate(78.48 324.22) rotate(-93.22)">L</text><text class="b" transform="translate(76.62 278.18) rotate(-85.35)">I</text><text class="b" transform="translate(79.05 244.95) rotate(-77.16)">Z</text><text class="b" transform="translate(89.63 197.87) rotate(-66.11)">A</text><text class="b" transform="translate(112.87 146.16) rotate(-53.29)">R</text><text class="b" transform="matrix(0.77, -0.63, 0.63, 0.77, 145.89, 101.98)">D</text><text x="-388.53" y="-67.61"/><path class="a" d="M626.79,592.53c-29.78-11.59-84.87-38.39-122-96-67.7-105-49.37-271.72,61-352,107.47-78.16,238.3-27.91,248-24,143.67,57.91,169.84,214.25,171,222,.23,1.57-25.85-138.21-140-193-61-29.29-156-39.31-231,16-8.13,6-85.29,64.93-85,164,.23,79.44,50.17,160,116,180,23.89,7.27,46.4,5.5,91,2,47.12-3.69,70.67-5.54,86-23,15.71-17.89,10.92-37.35,35-59,2.2-2,9.83-6.68,25-16,23.37-14.35,48.15-29,80-40,14.2-4.91,18.05-5,21-3,13.77,9.53-4.72,57.48-8,66-9.92,25.72-16.36,42.43-33,56-27.58,22.5-50.47,9.7-72,33-13.78,14.92-7.71,23.75-19,42-24.83,40.17-84.06,45.75-108,48C689.62,620.55,647.56,603.1,626.79,592.53Z" transform="translate(-388.53 -67.61)"/><path class="a" d="M872.76,521.81c-5.8,22-5.39,27.82-3.69,28.71,1.11.58,2.28-1.19,5.42-2.83,3.66-1.92,6.85-2,20.2-.93s17.44,1.75,21-1.33a9.81,9.81,0,0,0,3.32-4.95c1.47-5.53-3.36-9.33-1.52-14.2a8.58,8.58,0,0,1,4.54-4.52c.2-.09,3.62-1.64,4.74-.34.75.87,0,2.4-.56,4.58-1.14,4.79-.51,10.66,1,11.28s5.11-3.91,7.08-9.06c3.58-9.38-.64-14.23,3.68-21.21.76-1.25,3.27-5.3,7.62-6.14a32.78,32.78,0,0,1,6,.1c3.35.19,5.38.39,7.18.53,9.44.76,9.82-.11,12.36,1,4.44,2,7.23,6.44,6.72,7.19s-5.15-3.74-11.69-3.52c-1.26,0-5.46.18-8.18,3.2s-1,5.45-3.77,11.62c-1.92,4.32-3.94,5.83-3.22,7,.91,1.52,4.22-.66,9.17.56,3.11.78,5.64,2.94,10.69,7.27,3.87,3.31,6.47,6.1,6.28,6.35-.31.41-6.8-7.5-14.67-7.32a12.11,12.11,0,0,0-7.4,2.8c-3.13,2.72-2.36,5.3-4.65,9.93-4.27,8.61-11.78,9.42-11.18,14.42a37.25,37.25,0,0,0,2.64,5c3.24,5.78,4.74,8.12,4.4,8.42-.66.58-6.86-8.49-10.69-7.27-2.12.68-2.51,4.2-2.88,5.8-3.71,15.95-47.08,17.27-53.9,17.48-20.81.63-29.85-2.91-36.08-6.84-8.17-5.15-10.43-10.27-10.91-11.44-3.37-8.13-.68-17.55.15-20.43.37-1.29.68-2.14,1.19-3.5,2.55-6.85,5.17-10.73,11.1-20.07s5.79-9.34,6.64-9.9C857.52,514.92,867.54,519.13,872.76,521.81Z" transform="translate(-388.53 -67.61)"/><path class="a" d="M657.86,562.45c-3.89,3.79,5.44,14,12.71,19.34,10.66,7.88,28.23,14,28.13,20.59,0,.32-.1.68-4.54,10.61,6.08,12.69,3.59,20.3,0,25-4,5.26-10,7.34-10.89,13.72-.71,5,1.85,11,2.57,12.65a44.52,44.52,0,0,0,2.88,5.45c2.7,4.64,3.87,5.68,8.86,12.7,4.86,6.81,6.14,9.19,8.38,9.14a4.54,4.54,0,0,0,3.63-2.5c1.44-2.94-2.4-5.8-6.35-10-6.08-6.44-10.66-14.14-9.08-15s10.51,5.33,11.8,6.24c15.22,10.72,20.94,19.59,27.23,26.21,18.22,19.19,49.35,28,50.82,26.83.71-.58-4.22-4.65-9.08-7.49a50.23,50.23,0,0,0-6.35-3.12c-9.31-3.87-19.83-11.24-26.32-17.47-1.21-1.16-14.55-14-10-17.47,3-2.26,12.4.1,14.52.62a40.51,40.51,0,0,1,10.89,4.37c5.51,3.26,18,6.14,48.1,5a9.28,9.28,0,0,0-3.63-3.12c-3.69-1.81-8.15-1.38-10.89-1.24-7.25.34-12.91-.92-20-2.5,0,0-12.89-2.88-22.69-9.27l-.05,0c-2.44-1.59-3.66-2.39-3.57-2.56.32-.59,6.84,1.4,15.42,1.25a61.48,61.48,0,0,0,7.26-.62,165.56,165.56,0,0,0,20-3.75,16.67,16.67,0,0,0-1.82-.62,22.34,22.34,0,0,0-10,0c-3.9.7-8,.46-16.33,0-6.82-.38-11.77-.7-16.34-3.12-1.17-.62-5.26-2.78-4.54-4.37,1-2.14,9.42-.59,16.34-4.37a14.87,14.87,0,0,0,4.54-3.74,26.84,26.84,0,0,0-3.63-.62,27.23,27.23,0,0,0-5.45,0c-5,.53-9.31.94-12.71,1.24-3.8.34-5,.42-6.35,0-4.4-1.34-5.19-6.3-5.44-8.11-1.39-9.75,6.65-15.81,13.61-31.2,5.72-12.65,4.43-17.71,1.82-21.21-2.48-3.32-6.13-5.22-8.17-6.24C716.57,575.37,665.3,555.2,657.86,562.45Z" transform="translate(-388.53 -67.61)"/><path class="a" d="M630.24,508.31c-1.22,5.79,13.49,8.62,23.4,8.62,14.51,0,34.22-6,38.19-.21.19.28.33.66,2.36,12.11,13.29,7.11,15.67,15.31,15.25,21.64-.47,7.17-4.59,12.77-1.52,18.89,2.4,4.78,8.39,8.33,10.07,9.32a47.8,47.8,0,0,0,6,2.88c5.3,2.29,7,2.44,15.83,5.32,8.59,2.79,11.21,4,13.22,2.55a5.06,5.06,0,0,0,1.78-4.5c-.49-3.47-5.74-3.49-11.89-4.58-9.47-1.67-18.35-5.41-17.42-7.16S738.29,571.07,740,571c20.4-.48,31,3.55,40.8,5.25,28.32,4.94,62.06-7.38,62.66-9.36.3-1-6.68-1.32-12.83-.66a55.71,55.71,0,0,0-7.69,1.37c-10.84,2.62-24.93,3-34.64,1.74-1.82-.23-21.79-2.77-19.77-8.74,1.31-3.85,11.35-7.87,13.6-8.78a46.46,46.46,0,0,1,12.58-3.2c7-.72,20.13-6.22,46.84-26.54a10,10,0,0,0-5.21-.38c-4.47.8-8.26,4-10.68,5.91-6.38,5-12.32,7.49-19.7,10.65,0,0-13.5,5.78-26.32,6.53h-.07c-3.19.18-4.79.27-4.81.07-.07-.72,7.08-3.18,14.8-8.82a69.85,69.85,0,0,0,6.23-5.2,192.35,192.35,0,0,0,15.89-16.06,15.61,15.61,0,0,0-2,.63,26,26,0,0,0-9.08,6.4c-3.13,3.11-7,5.57-14.87,10.49-6.44,4-11.14,6.94-16.78,7.78-1.44.21-6.48,1-6.8-.88-.43-2.47,8.21-6.56,12.2-14.27a16.38,16.38,0,0,0,1.84-6.16,32.62,32.62,0,0,0-3.69,1.79,31.49,31.49,0,0,0-5,3.5c-4.23,3.68-7.9,6.79-10.81,9.23-3.25,2.74-4.3,3.57-5.78,4.08-4.83,1.65-8.57-2.13-9.91-3.54-7.22-7.56-3.61-18-6.68-35.78-2.53-14.64-6.8-18.2-11.32-19.56-4.28-1.29-8.77-.6-11.25-.17C691.58,481.84,632.58,497.25,630.24,508.31Z" transform="translate(-388.53 -67.61)"/><path class="a" d="M781.79,508.53c6.53,11.67,52.52,5.8,55-7,2.13-11-26.8-32.15-42-24-8,4.31-11.54,16.42-12,18C781.28,500.73,780,505.27,781.79,508.53Z" transform="translate(-388.53 -67.61)"/><text class="c" transform="matrix(1, -0.05, 0.05, 1, 335.04, 81.4)">T</text><text class="c" transform="translate(346.74 80.74) rotate(1.46)">H</text><text class="c" transform="matrix(1, 0.1, -0.1, 1, 365.56, 81.32)">E</text><text class="c" transform="translate(380 82.87) rotate(8.35)"> </text><text class="c" transform="matrix(0.98, 0.19, -0.19, 0.98, 387.02, 83.86)">L</text><text class="c" transform="matrix(0.97, 0.23, -0.23, 0.97, 399.62, 86.34)">I</text><text class="c" transform="matrix(0.96, 0.28, -0.28, 0.96, 408.06, 88.31)">S</text><text class="c" transform="translate(421.92 92.45) rotate(19.85)">T</text><text class="c" transform="translate(433.48 96.69) rotate(22.68)">I</text><text class="c" transform="matrix(0.89, 0.45, -0.45, 0.89, 441.04, 99.64)">N</text><text class="c" transform="translate(457.14 107.72) rotate(31.91)">G</text><text class="c" transform="translate(472.11 117.27) rotate(35.53)"> </text><text class="c" transform="translate(477.08 120.41) rotate(39.78)">W</text><text class="c" transform="translate(495.22 135.92) rotate(44.14)">I</text><text class="c" transform="translate(501.46 141.92) rotate(47.07)">Z</text><text class="c" transform="translate(510.73 151.85) rotate(50.71)">A</text><text class="c" transform="translate(520.87 164.27) rotate(54.39)">R</text><text class="c" transform="matrix(0.53, 0.85, -0.85, 0.53, 530.29, 177.41)">D</text><text x="-388.53" y="-67.61"/></svg>